<svg
    version="1.1"
    xmlns="http://www.w3.org/2000/svg" xmlns:xlink="http://www.w3.org/1999/xlink"
    x="0px" y="0px"
    viewBox="0 0 100 100"
    style="enable-background:new 0 0 100 100;"
    xml:space="preserve">

    <title>freehand</title>
    <path d="M49.1,47c-7-1.6-13.8-5-17.8-9.5c-5.3-5.8-3.9-13-4.3-17.7l0,0l0,0h-6.3l0,0l0,0c0.4,5.7-0.7,14.5,5.9,21.9
        c5.2,5.8,13.5,10.1,22.5,11.9 M49.1,53.5c7.3,1.6,13.3,5.5,17.5,10.1c5.5,6,6,15.3,6.4,19.7l0,0l0,0h6.3l0,0l0,0
        c-0.4-5.3-1.1-16.3-8-23.9C65.9,53.5,58.5,48.7,49.1,47"/>
</svg>
