<svg
    version="1.1"
    xmlns="http://www.w3.org/2000/svg" xmlns:xlink="http://www.w3.org/1999/xlink"
    x="0px" y="0px"
    viewBox="0 0 100 100"
    style="enable-background:new 0 0 100 100;"
    xml:space="preserve">

    <title>mouse-right</title>
    <g>
        <path class="mouse-outline" d="M53.1,0h-6.3C29.6,0,15.6,14,15.6,31.2v37.5c0,17.2,14,31.2,31.2,31.2h6.2c17.2,0,31.2-14,31.2-31.2V31.2
            C84.4,14,70.4,0,53.1,0z M46.9,6.2v25h-25C21.9,17.5,33.1,6.2,46.9,6.2z M53.1,93.8h-6.3c-13.8,0-25-11.2-25-25V37.5h56.2v31.2h0
            C78.1,82.5,66.9,93.8,53.1,93.8z"/>
        <path class="mouse-button" fill="#72A1C9" d="M78.1,31.2h-25v-25C66.9,6.2,78.1,17.5,78.1,31.2z"/>
    </g>
</svg>
